<?xml version="1.0" encoding="utf-8"?>
<!-- Generator: Adobe Illustrator 16.0.0, SVG Export Plug-In . SVG Version: 6.00 Build 0)  -->
<!DOCTYPE svg PUBLIC "-//W3C//DTD SVG 1.1//EN" "http://www.w3.org/Graphics/SVG/1.1/DTD/svg11.dtd">
<svg version="1.1" id="Layer_1" xmlns="http://www.w3.org/2000/svg" xmlns:xlink="http://www.w3.org/1999/xlink" x="0px" y="0px"
	 width="512px" height="512px" viewBox="0 0 512 512" enable-background="new 0 0 512 512" xml:space="preserve">
<ellipse fill="none" stroke="#999999" stroke-width="20" stroke-miterlimit="10" cx="256" cy="257.439" rx="243" ry="240.938"/>
<path fill="#999999" d="M261,123.49c-77.748,0-141,56.927-141,126.9c0,24.458,7.736,48.151,22.409,68.637
	c-2.778,30.725-10.222,53.535-21.032,64.34c-1.429,1.428-1.786,3.613-0.884,5.42c0.799,1.611,2.444,2.604,4.207,2.604
	c0.216,0,0.433-0.014,0.653-0.047c1.903-0.27,46.121-6.633,78.104-25.094c18.161,7.326,37.506,11.039,57.542,11.039
	c77.747,0,141-56.926,141-126.899C402,180.417,338.747,123.49,261,123.49z M195.2,269.189c-10.368,0-18.8-8.432-18.8-18.799
	c0-10.368,8.432-18.8,18.8-18.8s18.8,8.432,18.8,18.8C214,260.758,205.568,269.189,195.2,269.189z M261,269.189
	c-10.369,0-18.8-8.432-18.8-18.799c0-10.368,8.432-18.8,18.8-18.8c10.368,0,18.8,8.432,18.8,18.8
	C279.8,260.758,271.368,269.189,261,269.189z M326.8,269.189c-10.368,0-18.8-8.432-18.8-18.799c0-10.368,8.432-18.8,18.8-18.8
	s18.8,8.432,18.8,18.8C345.6,260.758,337.168,269.189,326.8,269.189z"/>
</svg>
